<?xml version="1.0" encoding="UTF-8" standalone="no"?>
<!DOCTYPE svg PUBLIC "-//W3C//DTD SVG 1.1//EN" "http://www.w3.org/Graphics/SVG/1.1/DTD/svg11.dtd">
<svg xmlns="http://www.w3.org/2000/svg" version="1.1" viewBox="0.00 0.00 256.00 256.00">
<g stroke-width="2.00" fill="none" stroke-linecap="butt">
<path stroke="#878786" vector-effect="non-scaling-stroke" d="
  M 128.64 104.62
  Q 124.20 99.67 118.64 96.03
  A 0.42 0.42 0.0 0 0 118.04 96.60
  L 118.35 97.11
  Q 118.54 97.44 118.85 97.68
  C 123.84 101.57 128.78 105.52 131.13 111.66
  Q 134.30 119.94 136.60 128.52
  A 1.20 1.18 53.4 0 1 136.47 129.44
  Q 135.69 130.73 134.13 130.47
  A 0.77 0.75 -2.9 0 1 133.52 129.93
  Q 132.29 125.57 128.44 123.34
  Q 127.99 123.08 127.86 122.58
  C 125.11 111.75 116.83 108.15 106.66 102.60
  C 104.21 101.26 101.43 100.92 99.52 103.00
  C 96.94 105.82 88.12 116.23 92.27 120.46
  C 98.56 126.88 104.00 134.10 102.30 142.75
  C 101.61 146.25 97.67 143.96 96.58 141.95
  Q 87.85 126.03 71.46 118.07
  C 68.50 116.63 57.13 119.37 53.34 119.91
  Q 52.86 119.98 52.76 120.46
  Q 52.72 120.63 52.76 120.78
  Q 52.86 121.23 53.32 121.16
  L 69.72 118.76
  A 1.25 1.18 -34.6 0 1 70.45 118.87
  Q 86.48 126.64 95.90 143.32
  Q 97.97 146.98 102.09 145.24
  A 1.02 0.99 0.6 0 0 102.59 144.76
  L 103.55 142.71
  Q 103.86 142.06 104.34 142.59
  Q 110.76 149.67 119.55 153.46
  Q 120.03 153.67 120.44 153.34
  C 125.67 149.12 134.75 139.51 133.89 132.22
  Q 133.83 131.73 134.32 131.76
  C 137.87 131.97 138.10 129.27 137.35 126.51
  Q 134.91 117.64 131.43 109.11
  C 129.38 104.11 131.22 101.60 125.94 97.54
  C 120.94 93.69 113.63 87.45 107.74 86.25
  Q 102.77 85.25 93.50 85.17
  Q 80.16 85.05 37.21 87.77
  Q 36.68 87.80 36.72 88.33
  Q 36.73 88.59 36.89 88.77
  Q 37.12 89.03 37.68 89.00
  Q 58.37 87.93 79.06 86.86
  Q 97.03 85.94 105.49 87.26
  C 111.95 88.27 126.45 97.23 129.32 104.20
  A 0.41 0.40 13.1 0 1 128.64 104.62"
/>
<path stroke="#878786" vector-effect="non-scaling-stroke" d="
  M 95.13 155.69
  C 95.57 148.87 107.88 154.98 110.71 156.30
  C 123.53 162.30 133.64 162.66 148.61 159.76
  Q 149.02 159.68 149.17 159.48
  Q 149.35 159.23 149.26 158.87
  A 0.60 0.60 0.0 0 0 148.55 158.43
  Q 138.13 160.71 127.47 160.20
  A 0.40 0.40 0.0 0 1 127.26 159.48
  Q 128.60 158.54 130.32 158.27
  Q 139.24 156.92 147.75 154.03
  Q 148.09 153.91 148.45 154.00
  Q 148.89 154.11 149.13 153.73
  C 154.13 145.81 165.82 144.00 174.03 146.39
  Q 177.29 147.34 183.49 151.01
  C 189.25 154.43 193.54 157.25 200.82 160.15
  Q 201.15 160.28 201.39 160.01
  Q 201.48 159.90 201.50 159.77
  Q 201.60 159.22 201.08 159.00
  C 184.49 152.06 168.10 134.00 149.56 150.81
  C 144.63 155.28 133.72 156.23 127.26 157.73
  A 0.88 0.87 12.4 0 0 126.77 158.04
  L 125.63 159.49
  Q 125.31 159.89 124.81 159.75
  Q 116.34 157.40 108.34 153.80
  C 104.42 152.03 98.10 149.48 94.59 153.33
  C 91.51 156.70 100.23 160.33 103.05 161.65
  C 104.26 162.22 104.71 163.61 106.09 164.38
  C 116.83 170.35 126.09 176.14 138.76 177.21
  Q 151.64 178.30 164.75 173.79
  Q 172.03 171.28 174.53 170.99
  C 187.25 169.50 195.36 175.71 204.90 182.88
  Q 205.75 183.52 206.60 183.45
  A 0.52 0.52 0.0 0 0 206.85 182.50
  C 197.00 175.63 189.01 168.86 176.16 169.59
  C 170.09 169.93 162.51 173.18 157.02 174.48
  Q 139.48 178.64 123.40 172.07
  C 118.05 169.88 111.45 165.74 105.55 162.58
  A 0.55 0.55 0.0 0 1 105.59 161.59
  C 106.92 161.02 108.52 161.14 110.00 161.66
  C 118.54 164.71 128.00 168.12 137.09 168.30
  A 0.58 0.57 75.1 0 0 137.59 167.43
  L 137.46 167.21
  Q 137.33 166.99 137.07 166.98
  C 127.99 166.68 119.14 163.71 110.20 160.29
  Q 107.71 159.34 104.68 160.59
  Q 104.21 160.78 103.77 160.55
  L 97.73 157.40
  A 0.94 0.93 44.8 0 1 97.72 155.74
  Q 100.15 154.45 102.24 155.57
  Q 117.32 163.68 134.42 164.97
  A 0.97 0.97 0.0 0 0 135.19 164.69
  L 135.42 164.45
  Q 136.05 163.83 135.17 163.77
  Q 118.84 162.64 104.46 155.12
  C 101.20 153.41 98.27 153.01 95.89 155.98
  A 0.43 0.43 0.0 0 1 95.13 155.69"
/>
<path stroke="#878786" vector-effect="non-scaling-stroke" d="
  M 115.23 111.09
  A 0.55 0.55 0.0 0 1 116.16 110.87
  C 119.43 114.29 123.07 116.80 122.23 122.45
  A 0.48 0.48 0.0 0 0 122.93 122.94
  Q 124.42 122.14 125.97 122.71
  Q 126.65 122.96 126.45 122.26
  C 124.66 115.86 121.37 112.78 115.33 109.22
  C 111.81 107.14 105.34 101.99 101.21 103.32
  A 1.21 1.19 -79.1 0 0 100.63 103.72
  L 98.01 107.01
  A 0.40 0.40 0.0 0 0 98.42 107.65
  Q 106.86 105.46 113.67 110.55
  A 1.58 1.58 0.0 0 1 113.49 113.20
  C 111.32 114.38 108.07 116.24 108.85 119.21
  A 1.48 1.47 77.2 0 0 110.55 120.29
  Q 115.23 119.38 119.25 116.80
  Q 119.71 116.51 119.32 116.13
  Q 117.29 114.18 115.52 112.15
  Q 115.32 111.91 115.26 111.67
  Q 115.16 111.31 115.23 111.09"
/>
<path stroke="#878786" vector-effect="non-scaling-stroke" d="
  M 109.72 121.57
  A 2.21 2.20 -0.9 0 1 107.41 119.33
  Q 107.49 114.23 112.25 112.48
  A 0.68 0.68 0.0 0 0 112.40 111.28
  C 107.58 107.98 103.85 108.17 97.16 108.88
  Q 96.58 108.94 96.28 109.44
  L 92.39 115.88
  A 2.51 2.50 36.9 0 0 92.84 119.02
  Q 97.87 123.63 101.23 129.56
  A 0.38 0.38 0.0 0 0 101.89 129.57
  C 104.80 124.60 110.50 124.49 115.34 126.09
  Q 115.88 126.26 116.05 125.73
  Q 117.33 121.77 120.33 118.84
  A 0.66 0.63 -26.1 0 0 120.52 118.32
  Q 120.50 118.16 120.50 118.00
  A 0.30 0.30 0.0 0 0 120.01 117.75
  Q 115.48 121.30 109.72 121.57"
/>
<path stroke="#878786" vector-effect="non-scaling-stroke" d="
  M 120.19 120.94
  Q 118.51 122.83 117.51 125.25
  A 0.32 0.32 0.0 0 0 117.94 125.66
  Q 121.15 124.06 121.28 120.56
  A 0.35 0.35 0.0 0 0 120.82 120.21
  Q 120.26 120.40 120.19 120.94"
/>
<path stroke="#878786" vector-effect="non-scaling-stroke" d="
  M 105.14 127.92
  C 100.36 131.02 103.59 135.23 103.91 139.68
  Q 103.94 140.17 104.25 140.55
  Q 109.66 147.32 117.83 150.93"
/>
<path stroke="#873636" vector-effect="non-scaling-stroke" d="
  M 117.83 150.93
  Q 118.18 151.46 119.52 151.85
  Q 119.96 151.98 120.31 151.69
  C 127.14 146.26 138.24 133.62 129.52 125.67
  C 124.80 121.37 121.37 125.28 117.38 127.65
  A 1.22 1.21 -52.6 0 1 116.45 127.78
  C 112.79 126.76 108.40 125.89 105.14 127.92"
/>
<path stroke="#ffaeaf" vector-effect="non-scaling-stroke" d="
  M 117.83 150.93
  C 112.89 147.39 105.58 141.79 104.27 135.82
  Q 103.37 131.68 105.14 127.92"
/>
</g>
<path fill="#ffffff" d="
  M 0.00 0.00
  L 256.00 0.00
  L 256.00 256.00
  L 0.00 256.00
  L 0.00 0.00
  Z
  M 128.64 104.62
  Q 124.20 99.67 118.64 96.03
  A 0.42 0.42 0.0 0 0 118.04 96.60
  L 118.35 97.11
  Q 118.54 97.44 118.85 97.68
  C 123.84 101.57 128.78 105.52 131.13 111.66
  Q 134.30 119.94 136.60 128.52
  A 1.20 1.18 53.4 0 1 136.47 129.44
  Q 135.69 130.73 134.13 130.47
  A 0.77 0.75 -2.9 0 1 133.52 129.93
  Q 132.29 125.57 128.44 123.34
  Q 127.99 123.08 127.86 122.58
  C 125.11 111.75 116.83 108.15 106.66 102.60
  C 104.21 101.26 101.43 100.92 99.52 103.00
  C 96.94 105.82 88.12 116.23 92.27 120.46
  C 98.56 126.88 104.00 134.10 102.30 142.75
  C 101.61 146.25 97.67 143.96 96.58 141.95
  Q 87.85 126.03 71.46 118.07
  C 68.50 116.63 57.13 119.37 53.34 119.91
  Q 52.86 119.98 52.76 120.46
  Q 52.72 120.63 52.76 120.78
  Q 52.86 121.23 53.32 121.16
  L 69.72 118.76
  A 1.25 1.18 -34.6 0 1 70.45 118.87
  Q 86.48 126.64 95.90 143.32
  Q 97.97 146.98 102.09 145.24
  A 1.02 0.99 0.6 0 0 102.59 144.76
  L 103.55 142.71
  Q 103.86 142.06 104.34 142.59
  Q 110.76 149.67 119.55 153.46
  Q 120.03 153.67 120.44 153.34
  C 125.67 149.12 134.75 139.51 133.89 132.22
  Q 133.83 131.73 134.32 131.76
  C 137.87 131.97 138.10 129.27 137.35 126.51
  Q 134.91 117.64 131.43 109.11
  C 129.38 104.11 131.22 101.60 125.94 97.54
  C 120.94 93.69 113.63 87.45 107.74 86.25
  Q 102.77 85.25 93.50 85.17
  Q 80.16 85.05 37.21 87.77
  Q 36.68 87.80 36.72 88.33
  Q 36.73 88.59 36.89 88.77
  Q 37.12 89.03 37.68 89.00
  Q 58.37 87.93 79.06 86.86
  Q 97.03 85.94 105.49 87.26
  C 111.95 88.27 126.45 97.23 129.32 104.20
  A 0.41 0.40 13.1 0 1 128.64 104.62
  Z
  M 95.13 155.69
  C 95.57 148.87 107.88 154.98 110.71 156.30
  C 123.53 162.30 133.64 162.66 148.61 159.76
  Q 149.02 159.68 149.17 159.48
  Q 149.35 159.23 149.26 158.87
  A 0.60 0.60 0.0 0 0 148.55 158.43
  Q 138.13 160.71 127.47 160.20
  A 0.40 0.40 0.0 0 1 127.26 159.48
  Q 128.60 158.54 130.32 158.27
  Q 139.24 156.92 147.75 154.03
  Q 148.09 153.91 148.45 154.00
  Q 148.89 154.11 149.13 153.73
  C 154.13 145.81 165.82 144.00 174.03 146.39
  Q 177.29 147.34 183.49 151.01
  C 189.25 154.43 193.54 157.25 200.82 160.15
  Q 201.15 160.28 201.39 160.01
  Q 201.48 159.90 201.50 159.77
  Q 201.60 159.22 201.08 159.00
  C 184.49 152.06 168.10 134.00 149.56 150.81
  C 144.63 155.28 133.72 156.23 127.26 157.73
  A 0.88 0.87 12.4 0 0 126.77 158.04
  L 125.63 159.49
  Q 125.31 159.89 124.81 159.75
  Q 116.34 157.40 108.34 153.80
  C 104.42 152.03 98.10 149.48 94.59 153.33
  C 91.51 156.70 100.23 160.33 103.05 161.65
  C 104.26 162.22 104.71 163.61 106.09 164.38
  C 116.83 170.35 126.09 176.14 138.76 177.21
  Q 151.64 178.30 164.75 173.79
  Q 172.03 171.28 174.53 170.99
  C 187.25 169.50 195.36 175.71 204.90 182.88
  Q 205.75 183.52 206.60 183.45
  A 0.52 0.52 0.0 0 0 206.85 182.50
  C 197.00 175.63 189.01 168.86 176.16 169.59
  C 170.09 169.93 162.51 173.18 157.02 174.48
  Q 139.48 178.64 123.40 172.07
  C 118.05 169.88 111.45 165.74 105.55 162.58
  A 0.55 0.55 0.0 0 1 105.59 161.59
  C 106.92 161.02 108.52 161.14 110.00 161.66
  C 118.54 164.71 128.00 168.12 137.09 168.30
  A 0.58 0.57 75.1 0 0 137.59 167.43
  L 137.46 167.21
  Q 137.33 166.99 137.07 166.98
  C 127.99 166.68 119.14 163.71 110.20 160.29
  Q 107.71 159.34 104.68 160.59
  Q 104.21 160.78 103.77 160.55
  L 97.73 157.40
  A 0.94 0.93 44.8 0 1 97.72 155.74
  Q 100.15 154.45 102.24 155.57
  Q 117.32 163.68 134.42 164.97
  A 0.97 0.97 0.0 0 0 135.19 164.69
  L 135.42 164.45
  Q 136.05 163.83 135.17 163.77
  Q 118.84 162.64 104.46 155.12
  C 101.20 153.41 98.27 153.01 95.89 155.98
  A 0.43 0.43 0.0 0 1 95.13 155.69
  Z"
/>
<path fill="#0e0e0d" d="
  M 128.64 104.62
  A 0.41 0.40 13.1 0 0 129.32 104.20
  C 126.45 97.23 111.95 88.27 105.49 87.26
  Q 97.03 85.94 79.06 86.86
  Q 58.37 87.93 37.68 89.00
  Q 37.12 89.03 36.89 88.77
  Q 36.73 88.59 36.72 88.33
  Q 36.68 87.80 37.21 87.77
  Q 80.16 85.05 93.50 85.17
  Q 102.77 85.25 107.74 86.25
  C 113.63 87.45 120.94 93.69 125.94 97.54
  C 131.22 101.60 129.38 104.11 131.43 109.11
  Q 134.91 117.64 137.35 126.51
  C 138.10 129.27 137.87 131.97 134.32 131.76
  Q 133.83 131.73 133.89 132.22
  C 134.75 139.51 125.67 149.12 120.44 153.34
  Q 120.03 153.67 119.55 153.46
  Q 110.76 149.67 104.34 142.59
  Q 103.86 142.06 103.55 142.71
  L 102.59 144.76
  A 1.02 0.99 0.6 0 1 102.09 145.24
  Q 97.97 146.98 95.90 143.32
  Q 86.48 126.64 70.45 118.87
  A 1.25 1.18 -34.6 0 0 69.72 118.76
  L 53.32 121.16
  Q 52.86 121.23 52.76 120.78
  Q 52.72 120.63 52.76 120.46
  Q 52.86 119.98 53.34 119.91
  C 57.13 119.37 68.50 116.63 71.46 118.07
  Q 87.85 126.03 96.58 141.95
  C 97.67 143.96 101.61 146.25 102.30 142.75
  C 104.00 134.10 98.56 126.88 92.27 120.46
  C 88.12 116.23 96.94 105.82 99.52 103.00
  C 101.43 100.92 104.21 101.26 106.66 102.60
  C 116.83 108.15 125.11 111.75 127.86 122.58
  Q 127.99 123.08 128.44 123.34
  Q 132.29 125.57 133.52 129.93
  A 0.77 0.75 -2.9 0 0 134.13 130.47
  Q 135.69 130.73 136.47 129.44
  A 1.20 1.18 53.4 0 0 136.60 128.52
  Q 134.30 119.94 131.13 111.66
  C 128.78 105.52 123.84 101.57 118.85 97.68
  Q 118.54 97.44 118.35 97.11
  L 118.04 96.60
  A 0.42 0.42 0.0 0 1 118.64 96.03
  Q 124.20 99.67 128.64 104.62
  Z
  M 115.23 111.09
  A 0.55 0.55 0.0 0 1 116.16 110.87
  C 119.43 114.29 123.07 116.80 122.23 122.45
  A 0.48 0.48 0.0 0 0 122.93 122.94
  Q 124.42 122.14 125.97 122.71
  Q 126.65 122.96 126.45 122.26
  C 124.66 115.86 121.37 112.78 115.33 109.22
  C 111.81 107.14 105.34 101.99 101.21 103.32
  A 1.21 1.19 -79.1 0 0 100.63 103.72
  L 98.01 107.01
  A 0.40 0.40 0.0 0 0 98.42 107.65
  Q 106.86 105.46 113.67 110.55
  A 1.58 1.58 0.0 0 1 113.49 113.20
  C 111.32 114.38 108.07 116.24 108.85 119.21
  A 1.48 1.47 77.2 0 0 110.55 120.29
  Q 115.23 119.38 119.25 116.80
  Q 119.71 116.51 119.32 116.13
  Q 117.29 114.18 115.52 112.15
  Q 115.32 111.91 115.26 111.67
  Q 115.16 111.31 115.23 111.09
  Z
  M 109.72 121.57
  A 2.21 2.20 -0.9 0 1 107.41 119.33
  Q 107.49 114.23 112.25 112.48
  A 0.68 0.68 0.0 0 0 112.40 111.28
  C 107.58 107.98 103.85 108.17 97.16 108.88
  Q 96.58 108.94 96.28 109.44
  L 92.39 115.88
  A 2.51 2.50 36.9 0 0 92.84 119.02
  Q 97.87 123.63 101.23 129.56
  A 0.38 0.38 0.0 0 0 101.89 129.57
  C 104.80 124.60 110.50 124.49 115.34 126.09
  Q 115.88 126.26 116.05 125.73
  Q 117.33 121.77 120.33 118.84
  A 0.66 0.63 -26.1 0 0 120.52 118.32
  Q 120.50 118.16 120.50 118.00
  A 0.30 0.30 0.0 0 0 120.01 117.75
  Q 115.48 121.30 109.72 121.57
  Z
  M 120.19 120.94
  Q 118.51 122.83 117.51 125.25
  A 0.32 0.32 0.0 0 0 117.94 125.66
  Q 121.15 124.06 121.28 120.56
  A 0.35 0.35 0.0 0 0 120.82 120.21
  Q 120.26 120.40 120.19 120.94
  Z
  M 105.14 127.92
  C 100.36 131.02 103.59 135.23 103.91 139.68
  Q 103.94 140.17 104.25 140.55
  Q 109.66 147.32 117.83 150.93
  Q 118.18 151.46 119.52 151.85
  Q 119.96 151.98 120.31 151.69
  C 127.14 146.26 138.24 133.62 129.52 125.67
  C 124.80 121.37 121.37 125.28 117.38 127.65
  A 1.22 1.21 -52.6 0 1 116.45 127.78
  C 112.79 126.76 108.40 125.89 105.14 127.92
  Z"
/>
<path fill="#ffffff" d="
  M 115.23 111.09
  Q 115.16 111.31 115.26 111.67
  Q 115.32 111.91 115.52 112.15
  Q 117.29 114.18 119.32 116.13
  Q 119.71 116.51 119.25 116.80
  Q 115.23 119.38 110.55 120.29
  A 1.48 1.47 77.2 0 1 108.85 119.21
  C 108.07 116.24 111.32 114.38 113.49 113.20
  A 1.58 1.58 0.0 0 0 113.67 110.55
  Q 106.86 105.46 98.42 107.65
  A 0.40 0.40 0.0 0 1 98.01 107.01
  L 100.63 103.72
  A 1.21 1.19 -79.1 0 1 101.21 103.32
  C 105.34 101.99 111.81 107.14 115.33 109.22
  C 121.37 112.78 124.66 115.86 126.45 122.26
  Q 126.65 122.96 125.97 122.71
  Q 124.42 122.14 122.93 122.94
  A 0.48 0.48 0.0 0 1 122.23 122.45
  C 123.07 116.80 119.43 114.29 116.16 110.87
  A 0.55 0.55 0.0 0 0 115.23 111.09
  Z"
/>
<path fill="#ffffff" d="
  M 109.72 121.57
  Q 115.48 121.30 120.01 117.75
  A 0.30 0.30 0.0 0 1 120.50 118.00
  Q 120.50 118.16 120.52 118.32
  A 0.66 0.63 -26.1 0 1 120.33 118.84
  Q 117.33 121.77 116.05 125.73
  Q 115.88 126.26 115.34 126.09
  C 110.50 124.49 104.80 124.60 101.89 129.57
  A 0.38 0.38 0.0 0 1 101.23 129.56
  Q 97.87 123.63 92.84 119.02
  A 2.51 2.50 36.9 0 1 92.39 115.88
  L 96.28 109.44
  Q 96.58 108.94 97.16 108.88
  C 103.85 108.17 107.58 107.98 112.40 111.28
  A 0.68 0.68 0.0 0 1 112.25 112.48
  Q 107.49 114.23 107.41 119.33
  A 2.21 2.20 -0.9 0 0 109.72 121.57
  Z"
/>
<path fill="#ffffff" d="
  M 120.19 120.94
  Q 120.26 120.40 120.82 120.21
  A 0.35 0.35 0.0 0 1 121.28 120.56
  Q 121.15 124.06 117.94 125.66
  A 0.32 0.32 0.0 0 1 117.51 125.25
  Q 118.51 122.83 120.19 120.94
  Z"
/>
<path fill="#ff5d5e" d="
  M 117.83 150.93
  C 112.89 147.39 105.58 141.79 104.27 135.82
  Q 103.37 131.68 105.14 127.92
  C 108.40 125.89 112.79 126.76 116.45 127.78
  A 1.22 1.21 -52.6 0 0 117.38 127.65
  C 121.37 125.28 124.80 121.37 129.52 125.67
  C 138.24 133.62 127.14 146.26 120.31 151.69
  Q 119.96 151.98 119.52 151.85
  Q 118.18 151.46 117.83 150.93
  Z"
/>
<path fill="#ffffff" d="
  M 105.14 127.92
  Q 103.37 131.68 104.27 135.82
  C 105.58 141.79 112.89 147.39 117.83 150.93
  Q 109.66 147.32 104.25 140.55
  Q 103.94 140.17 103.91 139.68
  C 103.59 135.23 100.36 131.02 105.14 127.92
  Z"
/>
<path fill="#0e0e0d" d="
  M 95.13 155.69
  A 0.43 0.43 0.0 0 0 95.89 155.98
  C 98.27 153.01 101.20 153.41 104.46 155.12
  Q 118.84 162.64 135.17 163.77
  Q 136.05 163.83 135.42 164.45
  L 135.19 164.69
  A 0.97 0.97 0.0 0 1 134.42 164.97
  Q 117.32 163.68 102.24 155.57
  Q 100.15 154.45 97.72 155.74
  A 0.94 0.93 44.8 0 0 97.73 157.40
  L 103.77 160.55
  Q 104.21 160.78 104.68 160.59
  Q 107.71 159.34 110.20 160.29
  C 119.14 163.71 127.99 166.68 137.07 166.98
  Q 137.33 166.99 137.46 167.21
  L 137.59 167.43
  A 0.58 0.57 75.1 0 1 137.09 168.30
  C 128.00 168.12 118.54 164.71 110.00 161.66
  C 108.52 161.14 106.92 161.02 105.59 161.59
  A 0.55 0.55 0.0 0 0 105.55 162.58
  C 111.45 165.74 118.05 169.88 123.40 172.07
  Q 139.48 178.64 157.02 174.48
  C 162.51 173.18 170.09 169.93 176.16 169.59
  C 189.01 168.86 197.00 175.63 206.85 182.50
  A 0.52 0.52 0.0 0 1 206.60 183.45
  Q 205.75 183.52 204.90 182.88
  C 195.36 175.71 187.25 169.50 174.53 170.99
  Q 172.03 171.28 164.75 173.79
  Q 151.64 178.30 138.76 177.21
  C 126.09 176.14 116.83 170.35 106.09 164.38
  C 104.71 163.61 104.26 162.22 103.05 161.65
  C 100.23 160.33 91.51 156.70 94.59 153.33
  C 98.10 149.48 104.42 152.03 108.34 153.80
  Q 116.34 157.40 124.81 159.75
  Q 125.31 159.89 125.63 159.49
  L 126.77 158.04
  A 0.88 0.87 12.4 0 1 127.26 157.73
  C 133.72 156.23 144.63 155.28 149.56 150.81
  C 168.10 134.00 184.49 152.06 201.08 159.00
  Q 201.60 159.22 201.50 159.77
  Q 201.48 159.90 201.39 160.01
  Q 201.15 160.28 200.82 160.15
  C 193.54 157.25 189.25 154.43 183.49 151.01
  Q 177.29 147.34 174.03 146.39
  C 165.82 144.00 154.13 145.81 149.13 153.73
  Q 148.89 154.11 148.45 154.00
  Q 148.09 153.91 147.75 154.03
  Q 139.24 156.92 130.32 158.27
  Q 128.60 158.54 127.26 159.48
  A 0.40 0.40 0.0 0 0 127.47 160.20
  Q 138.13 160.71 148.55 158.43
  A 0.60 0.60 0.0 0 1 149.26 158.87
  Q 149.35 159.23 149.17 159.48
  Q 149.02 159.68 148.61 159.76
  C 133.64 162.66 123.53 162.30 110.71 156.30
  C 107.88 154.98 95.57 148.87 95.13 155.69
  Z"
/>
</svg>
